<?xml version="1.0" encoding="UTF-8"?>
<svg xmlns="http://www.w3.org/2000/svg" xmlns:xlink="http://www.w3.org/1999/xlink"
     width="390" height="844" viewBox="0 0 390 844" preserveAspectRatio="xMidYMid meet">
  <title>Inicio</title>
  <defs>
    <linearGradient id="gradDrawer" x1="0" y1="0" x2="0" y2="1">
      <stop offset="0%" stop-color="#2E5E3E"/>
      <stop offset="100%" stop-color="#1E3D2A"/>
    </linearGradient>
    <linearGradient id="gradHero" x1="0" y1="0" x2="0" y2="1">
      <stop offset="0%" stop-color="#000000" stop-opacity="0.35"/>
      <stop offset="50%" stop-color="#000000" stop-opacity="0"/>
      <stop offset="100%" stop-color="#000000" stop-opacity="0.55"/>
    </linearGradient>
    <clipPath id="clipFrame"><rect width="390" height="844"/></clipPath>
    <filter id="shadow-sm" x="-8%" y="-8%" width="116%" height="120%">
      <feDropShadow dx="0" dy="2" stdDeviation="3" flood-color="#000000" flood-opacity="0.08"/>
    </filter>
    <filter id="shadow-md" x="-8%" y="-8%" width="116%" height="120%">
      <feDropShadow dx="0" dy="4" stdDeviation="6" flood-color="#000000" flood-opacity="0.12"/>
    </filter>
  </defs>
  <g id="screen">
<rect x="0" y="0" width="390" height="844" rx="0" fill="#FAF9F6"/>
<g id="top-bar">
  <rect x="0" y="0" width="390" height="64" rx="0" fill="#FAF9F6"/>
  <g transform="translate(16,20)">
  <rect x="0" y="0" width="18" height="2.5" rx="1.2" fill="#2E5E3E"/>
  <rect x="0" y="7" width="18" height="2.5" rx="1.2" fill="#2E5E3E"/>
  <rect x="0" y="14" width="18" height="2.5" rx="1.2" fill="#2E5E3E"/>
</g>
  <text x="56.0" y="29.6" font-family="Georgia, 'Times New Roman', serif" font-size="20" font-weight="700" fill="#2E5E3E">Selva Booking</text>
</g>
<g id="search">
  <rect x="16" y="80" width="358" height="56" rx="16" fill="#FAF9F6" stroke="#2E5E3E" stroke-width="1"/>
  <g transform="translate(32,98)">
    <circle cx="8" cy="8" r="6" stroke="#2E5E3E" stroke-width="1.8" fill="none"/>
    <line x1="12" y1="12" x2="17" y2="17" stroke="#2E5E3E" stroke-width="1.8" stroke-linecap="round"/>
  </g>
  <text x="64.0" y="101.3" font-family="Inter, Roboto, Arial, sans-serif" font-size="14" font-weight="400" fill="#2C4A4A">Buscar hoteles...</text>
</g>
<g id="quick-access" filter="url(#shadow-sm)">
  <rect x="16" y="152" width="358" height="72" rx="16" fill="#F3F1EA"/>
  <g transform="translate(32,172)">
    <path d="M3 2 H15 V16 L9 12 L3 16 Z" fill="#2E5E3E"/>
  </g>
  <text x="68.0" y="176.1" font-family="Inter, Roboto, Arial, sans-serif" font-size="16" font-weight="600" fill="#1A2E1A">Mis Reservas</text>
  <text x="68.0" y="196.6" font-family="Inter, Roboto, Arial, sans-serif" font-size="12" font-weight="400" fill="#2C4A4A">Consulta y gestiona tus reservas</text>
</g>
<text x="16.0" y="247.6" font-family="Georgia, 'Times New Roman', serif" font-size="20" font-weight="700" fill="#2E5E3E">Hoteles destacados</text>
<g id="hotel-card" filter="url(#shadow-md)">
  <rect x="16" y="262" width="280" height="268" rx="16" fill="#F3F1EA"/>
  <g id="img-ph">
  <rect x="16" y="262" width="280" height="160" rx="16" fill="#E8EDE9" stroke="#2E5E3E" stroke-width="1"/>
  <line x1="24" y1="270" x2="288" y2="414" stroke="#2E5E3E" stroke-width="1" stroke-opacity="0.25"/>
  <line x1="288" y1="270" x2="24" y2="414" stroke="#2E5E3E" stroke-width="1" stroke-opacity="0.25"/>
  <text x="156.0" y="338.2" font-family="Inter, Roboto, Arial, sans-serif" font-size="11" font-weight="400" fill="#2C4A4A" text-anchor="middle" opacity="0.55">Hotel</text>
</g>
  <rect x="16" y="410" width="280" height="12" fill="#F3F1EA"/>
  <rect x="228" y="272" width="56" height="22" rx="8" fill="#E8954A"/>
  <text x="256.0" y="279.8" font-family="Inter, Roboto, Arial, sans-serif" font-size="10" font-weight="700" fill="#FAF9F6" text-anchor="middle">OFERTA</text>
  <text x="30.0" y="437.7" font-family="Inter, Roboto, Arial, sans-serif" font-size="15" font-weight="600" fill="#1A2E1A">Eco Lodge Selva Verde</text>
  <text x="30.0" y="458.6" font-family="Inter, Roboto, Arial, sans-serif" font-size="12" font-weight="400" fill="#2C4A4A">Puerto Maldonado</text>
  <text x="30.0" y="485.3" font-family="Inter, Roboto, Arial, sans-serif" font-size="14" font-weight="700" fill="#2E5E3E">S/ 280</text>
  <text x="30.0" y="502.6" font-family="Inter, Roboto, Arial, sans-serif" font-size="12" font-weight="400" fill="#2C4A4A">/ noche</text>
</g>
<g id="hotel-card" filter="url(#shadow-md)">
  <rect x="312" y="262" width="280" height="268" rx="16" fill="#F3F1EA"/>
  <g id="img-ph">
  <rect x="312" y="262" width="280" height="160" rx="16" fill="#E8EDE9" stroke="#2E5E3E" stroke-width="1"/>
  <line x1="320" y1="270" x2="584" y2="414" stroke="#2E5E3E" stroke-width="1" stroke-opacity="0.25"/>
  <line x1="584" y1="270" x2="320" y2="414" stroke="#2E5E3E" stroke-width="1" stroke-opacity="0.25"/>
  <text x="452.0" y="338.2" font-family="Inter, Roboto, Arial, sans-serif" font-size="11" font-weight="400" fill="#2C4A4A" text-anchor="middle" opacity="0.55">Hotel</text>
</g>
  <rect x="312" y="410" width="280" height="12" fill="#F3F1EA"/>
  
  <text x="326.0" y="437.7" font-family="Inter, Roboto, Arial, sans-serif" font-size="15" font-weight="600" fill="#1A2E1A">Tambopata Jungle</text>
  <text x="326.0" y="458.6" font-family="Inter, Roboto, Arial, sans-serif" font-size="12" font-weight="400" fill="#2C4A4A">Tambopata</text>
  <text x="326.0" y="485.3" font-family="Inter, Roboto, Arial, sans-serif" font-size="14" font-weight="700" fill="#2E5E3E">S/ 200</text>
  <text x="326.0" y="502.6" font-family="Inter, Roboto, Arial, sans-serif" font-size="12" font-weight="400" fill="#2C4A4A">/ noche</text>
</g>
<text x="16.0" y="553.6" font-family="Georgia, 'Times New Roman', serif" font-size="20" font-weight="700" fill="#2E5E3E">Ofertas especiales</text>
<g id="hotel-offer" filter="url(#shadow-sm)">
  <rect x="16" y="568" width="358" height="144" rx="16" fill="#FAF9F6"/>
  <g id="img-ph">
  <rect x="28" y="580" width="110" height="120" rx="12" fill="#E8EDE9" stroke="#2E5E3E" stroke-width="1"/>
  <line x1="36" y1="588" x2="130" y2="692" stroke="#2E5E3E" stroke-width="1" stroke-opacity="0.25"/>
  <line x1="130" y1="588" x2="36" y2="692" stroke="#2E5E3E" stroke-width="1" stroke-opacity="0.25"/>
  <text x="83.0" y="636.2" font-family="Inter, Roboto, Arial, sans-serif" font-size="11" font-weight="400" fill="#2C4A4A" text-anchor="middle" opacity="0.55">Hotel</text>
</g>
  <rect x="28" y="586" width="48" height="20" rx="6" fill="#E8954A"/>
  <text x="52.0" y="591.8" font-family="Inter, Roboto, Arial, sans-serif" font-size="10" font-weight="700" fill="#FAF9F6" text-anchor="middle">Oferta</text>
  <text x="150.0" y="593.7" font-family="Inter, Roboto, Arial, sans-serif" font-size="15" font-weight="600" fill="#1A2E1A">Cabanas Madre de Dios</text>
  <text x="150.0" y="616.6" font-family="Inter, Roboto, Arial, sans-serif" font-size="12" font-weight="400" fill="#2C4A4A">Puerto Maldonado</text>
  <text x="150.0" y="681.3" font-family="Inter, Roboto, Arial, sans-serif" font-size="14" font-weight="700" fill="#2E5E3E">desde S/ 120</text>
</g>
<text x="16.0" y="735.6" font-family="Georgia, 'Times New Roman', serif" font-size="20" font-weight="700" fill="#2E5E3E">Recomendaciones</text>
<g id="hotel-offer" filter="url(#shadow-sm)">
  <rect x="16" y="750" width="358" height="144" rx="16" fill="#FAF9F6"/>
  <g id="img-ph">
  <rect x="28" y="762" width="110" height="120" rx="12" fill="#E8EDE9" stroke="#2E5E3E" stroke-width="1"/>
  <line x1="36" y1="770" x2="130" y2="874" stroke="#2E5E3E" stroke-width="1" stroke-opacity="0.25"/>
  <line x1="130" y1="770" x2="36" y2="874" stroke="#2E5E3E" stroke-width="1" stroke-opacity="0.25"/>
  <text x="83.0" y="818.2" font-family="Inter, Roboto, Arial, sans-serif" font-size="11" font-weight="400" fill="#2C4A4A" text-anchor="middle" opacity="0.55">Hotel</text>
</g>
  <rect x="28" y="768" width="48" height="20" rx="6" fill="#E8954A"/>
  <text x="52.0" y="773.8" font-family="Inter, Roboto, Arial, sans-serif" font-size="10" font-weight="700" fill="#FAF9F6" text-anchor="middle">Oferta</text>
  <text x="150.0" y="775.7" font-family="Inter, Roboto, Arial, sans-serif" font-size="15" font-weight="600" fill="#1A2E1A">Amazonia Rainforest</text>
  <text x="150.0" y="798.6" font-family="Inter, Roboto, Arial, sans-serif" font-size="12" font-weight="400" fill="#2C4A4A">Tambopata</text>
  <text x="150.0" y="863.3" font-family="Inter, Roboto, Arial, sans-serif" font-size="14" font-weight="700" fill="#2E5E3E">desde S/ 450</text>
</g>
  </g>
</svg>