<?xml version="1.0" encoding="UTF-8"?>
<svg xmlns="http://www.w3.org/2000/svg" xmlns:xlink="http://www.w3.org/1999/xlink"
     width="390" height="844" viewBox="0 0 390 844" preserveAspectRatio="xMidYMid meet">
  <title>Comparar hoteles</title>
  <defs>
    <linearGradient id="gradDrawer" x1="0" y1="0" x2="0" y2="1">
      <stop offset="0%" stop-color="#2E5E3E"/>
      <stop offset="100%" stop-color="#1E3D2A"/>
    </linearGradient>
    <linearGradient id="gradHero" x1="0" y1="0" x2="0" y2="1">
      <stop offset="0%" stop-color="#000000" stop-opacity="0.35"/>
      <stop offset="50%" stop-color="#000000" stop-opacity="0"/>
      <stop offset="100%" stop-color="#000000" stop-opacity="0.55"/>
    </linearGradient>
    <clipPath id="clipFrame"><rect width="390" height="844"/></clipPath>
    <filter id="shadow-sm" x="-8%" y="-8%" width="116%" height="120%">
      <feDropShadow dx="0" dy="2" stdDeviation="3" flood-color="#000000" flood-opacity="0.08"/>
    </filter>
    <filter id="shadow-md" x="-8%" y="-8%" width="116%" height="120%">
      <feDropShadow dx="0" dy="4" stdDeviation="6" flood-color="#000000" flood-opacity="0.12"/>
    </filter>
  </defs>
  <g id="screen">
<rect x="0" y="0" width="390" height="844" rx="0" fill="#FAF9F6"/>
<g id="top-bar">
  <rect x="0" y="0" width="390" height="64" rx="0" fill="#FAF9F6"/>
  <g transform="translate(16,20)">
  <rect x="0" y="0" width="18" height="2.5" rx="1.2" fill="#2E5E3E"/>
  <rect x="0" y="7" width="18" height="2.5" rx="1.2" fill="#2E5E3E"/>
  <rect x="0" y="14" width="18" height="2.5" rx="1.2" fill="#2E5E3E"/>
</g>
  <text x="56.0" y="29.6" font-family="Georgia, 'Times New Roman', serif" font-size="20" font-weight="700" fill="#2E5E3E">Comparar hoteles</text>
</g>
<g id="search-input">
  <rect x="16" y="80" width="358" height="56" rx="24" fill="#FAF9F6" stroke="#2E5E3E" stroke-width="1"/>
  <g transform="translate(32,98)">
    <circle cx="8" cy="8" r="6" stroke="#2E5E3E" stroke-width="1.8" fill="none"/>
    <line x1="12" y1="12" x2="17" y2="17" stroke="#2E5E3E" stroke-width="1.8" stroke-linecap="round"/>
  </g>
  <text x="64.0" y="101.3" font-family="Inter, Roboto, Arial, sans-serif" font-size="14" font-weight="400" fill="#2C4A4A">Tambopata</text>
</g>
<text x="16.0" y="156.9" font-family="Inter, Roboto, Arial, sans-serif" font-size="13" font-weight="400" fill="#2C4A4A">4 ofertas encontradas</text>
<text x="374.0" y="156.9" font-family="Inter, Roboto, Arial, sans-serif" font-size="13" font-weight="600" fill="#2E5E3E" text-anchor="end">Filtros</text>
<g id="chip-Recomendados">
  <rect x="16" y="168" width="136" height="32" rx="16" fill="#2E5E3E"/>
  <text x="84.0" y="180.6" font-family="Inter, Roboto, Arial, sans-serif" font-size="12" font-weight="600" fill="#FAF9F6" text-anchor="middle">Recomendados</text>
</g>
<g id="chip-Menor precio">
  <rect x="140" y="168" width="136" height="32" rx="16" fill="#FAF9F6" stroke="#2E5E3E" stroke-width="1"/>
  <text x="208.0" y="180.6" font-family="Inter, Roboto, Arial, sans-serif" font-size="12" font-weight="600" fill="#2E5E3E" text-anchor="middle">Menor precio</text>
</g>
<g id="chip-Mejor valoracion">
  <rect x="260" y="168" width="172" height="32" rx="16" fill="#FAF9F6" stroke="#2E5E3E" stroke-width="1"/>
  <text x="346.0" y="180.6" font-family="Inter, Roboto, Arial, sans-serif" font-size="12" font-weight="600" fill="#2E5E3E" text-anchor="middle">Mejor valoracion</text>
</g>
<g id="hotel-offer" filter="url(#shadow-sm)">
  <rect x="16" y="264" width="358" height="144" rx="16" fill="#FAF9F6"/>
  <g id="img-ph">
  <rect x="28" y="276" width="110" height="120" rx="12" fill="#E8EDE9" stroke="#2E5E3E" stroke-width="1"/>
  <line x1="36" y1="284" x2="130" y2="388" stroke="#2E5E3E" stroke-width="1" stroke-opacity="0.25"/>
  <line x1="130" y1="284" x2="36" y2="388" stroke="#2E5E3E" stroke-width="1" stroke-opacity="0.25"/>
  <text x="83.0" y="332.2" font-family="Inter, Roboto, Arial, sans-serif" font-size="11" font-weight="400" fill="#2C4A4A" text-anchor="middle" opacity="0.55">Hotel</text>
</g>
  <rect x="28" y="282" width="48" height="20" rx="6" fill="#E8954A"/>
  <text x="52.0" y="287.8" font-family="Inter, Roboto, Arial, sans-serif" font-size="10" font-weight="700" fill="#FAF9F6" text-anchor="middle">Oferta</text>
  <text x="150.0" y="289.7" font-family="Inter, Roboto, Arial, sans-serif" font-size="15" font-weight="600" fill="#1A2E1A">Eco Lodge Selva Verde</text>
  <text x="150.0" y="312.6" font-family="Inter, Roboto, Arial, sans-serif" font-size="12" font-weight="400" fill="#2C4A4A">Puerto Maldonado</text>
  <text x="150.0" y="377.3" font-family="Inter, Roboto, Arial, sans-serif" font-size="14" font-weight="700" fill="#2E5E3E">desde S/ 280</text>
</g>
<g id="hotel-offer" filter="url(#shadow-sm)">
  <rect x="16" y="424" width="358" height="144" rx="16" fill="#FAF9F6"/>
  <g id="img-ph">
  <rect x="28" y="436" width="110" height="120" rx="12" fill="#E8EDE9" stroke="#2E5E3E" stroke-width="1"/>
  <line x1="36" y1="444" x2="130" y2="548" stroke="#2E5E3E" stroke-width="1" stroke-opacity="0.25"/>
  <line x1="130" y1="444" x2="36" y2="548" stroke="#2E5E3E" stroke-width="1" stroke-opacity="0.25"/>
  <text x="83.0" y="492.2" font-family="Inter, Roboto, Arial, sans-serif" font-size="11" font-weight="400" fill="#2C4A4A" text-anchor="middle" opacity="0.55">Hotel</text>
</g>
  <rect x="28" y="442" width="48" height="20" rx="6" fill="#E8954A"/>
  <text x="52.0" y="447.8" font-family="Inter, Roboto, Arial, sans-serif" font-size="10" font-weight="700" fill="#FAF9F6" text-anchor="middle">Oferta</text>
  <text x="150.0" y="449.7" font-family="Inter, Roboto, Arial, sans-serif" font-size="15" font-weight="600" fill="#1A2E1A">Tambopata Jungle Lodge</text>
  <text x="150.0" y="472.6" font-family="Inter, Roboto, Arial, sans-serif" font-size="12" font-weight="400" fill="#2C4A4A">Tambopata</text>
  <text x="150.0" y="537.3" font-family="Inter, Roboto, Arial, sans-serif" font-size="14" font-weight="700" fill="#2E5E3E">desde S/ 200</text>
</g>
  </g>
</svg>