<?xml version="1.0" encoding="UTF-8"?>
<svg xmlns="http://www.w3.org/2000/svg" xmlns:xlink="http://www.w3.org/1999/xlink"
     width="390" height="844" viewBox="0 0 390 844" preserveAspectRatio="xMidYMid meet">
  <title>Comparar hoteles - Filtros</title>
  <defs>
    <linearGradient id="gradDrawer" x1="0" y1="0" x2="0" y2="1">
      <stop offset="0%" stop-color="#2E5E3E"/>
      <stop offset="100%" stop-color="#1E3D2A"/>
    </linearGradient>
    <linearGradient id="gradHero" x1="0" y1="0" x2="0" y2="1">
      <stop offset="0%" stop-color="#000000" stop-opacity="0.35"/>
      <stop offset="50%" stop-color="#000000" stop-opacity="0"/>
      <stop offset="100%" stop-color="#000000" stop-opacity="0.55"/>
    </linearGradient>
    <clipPath id="clipFrame"><rect width="390" height="844"/></clipPath>
    <filter id="shadow-sm" x="-8%" y="-8%" width="116%" height="120%">
      <feDropShadow dx="0" dy="2" stdDeviation="3" flood-color="#000000" flood-opacity="0.08"/>
    </filter>
    <filter id="shadow-md" x="-8%" y="-8%" width="116%" height="120%">
      <feDropShadow dx="0" dy="4" stdDeviation="6" flood-color="#000000" flood-opacity="0.12"/>
    </filter>
  </defs>
  <g id="screen">
<rect x="0" y="0" width="390" height="844" rx="0" fill="#FAF9F6"/>
<g id="top-bar">
  <rect x="0" y="0" width="390" height="64" rx="0" fill="#FAF9F6"/>
  <g transform="translate(16,20)">
  <rect x="0" y="0" width="18" height="2.5" rx="1.2" fill="#2E5E3E"/>
  <rect x="0" y="7" width="18" height="2.5" rx="1.2" fill="#2E5E3E"/>
  <rect x="0" y="14" width="18" height="2.5" rx="1.2" fill="#2E5E3E"/>
</g>
  <text x="56.0" y="29.6" font-family="Georgia, 'Times New Roman', serif" font-size="20" font-weight="700" fill="#2E5E3E">Comparar hoteles</text>
</g>
<g id="search-input">
  <rect x="16" y="80" width="358" height="56" rx="24" fill="#FAF9F6" stroke="#2E5E3E" stroke-width="1"/>
  <g transform="translate(32,98)">
    <circle cx="8" cy="8" r="6" stroke="#2E5E3E" stroke-width="1.8" fill="none"/>
    <line x1="12" y1="12" x2="17" y2="17" stroke="#2E5E3E" stroke-width="1.8" stroke-linecap="round"/>
  </g>
  <text x="64.0" y="101.3" font-family="Inter, Roboto, Arial, sans-serif" font-size="14" font-weight="400" fill="#2C4A4A">Tambopata</text>
</g>
<text x="16.0" y="156.9" font-family="Inter, Roboto, Arial, sans-serif" font-size="13" font-weight="400" fill="#2C4A4A">4 ofertas encontradas</text>
<text x="374.0" y="156.9" font-family="Inter, Roboto, Arial, sans-serif" font-size="13" font-weight="600" fill="#2E5E3E" text-anchor="end">Ocultar filtros</text>
<g id="chip-Recomendados">
  <rect x="16" y="168" width="136" height="32" rx="16" fill="#2E5E3E"/>
  <text x="84.0" y="180.6" font-family="Inter, Roboto, Arial, sans-serif" font-size="12" font-weight="600" fill="#FAF9F6" text-anchor="middle">Recomendados</text>
</g>
<g id="chip-Menor precio">
  <rect x="140" y="168" width="136" height="32" rx="16" fill="#FAF9F6" stroke="#2E5E3E" stroke-width="1"/>
  <text x="208.0" y="180.6" font-family="Inter, Roboto, Arial, sans-serif" font-size="12" font-weight="600" fill="#2E5E3E" text-anchor="middle">Menor precio</text>
</g>
<g id="chip-Mejor valoracion">
  <rect x="260" y="168" width="172" height="32" rx="16" fill="#FAF9F6" stroke="#2E5E3E" stroke-width="1"/>
  <text x="346.0" y="180.6" font-family="Inter, Roboto, Arial, sans-serif" font-size="12" font-weight="600" fill="#2E5E3E" text-anchor="middle">Mejor valoracion</text>
</g>
<g id="filters" filter="url(#shadow-sm)">
  <rect x="16" y="212" width="358" height="176" rx="14" fill="#F3F1EA"/>
  <text x="32.0" y="232.6" font-family="Inter, Roboto, Arial, sans-serif" font-size="12" font-weight="500" fill="#2E5E3E">Ciudad</text>
  <rect x="32" y="246" width="326" height="44" rx="10" fill="#FAF9F6" stroke="#8B5E3C" stroke-width="1.2"/>
  <text x="44.0" y="263.3" font-family="Inter, Roboto, Arial, sans-serif" font-size="14" font-weight="400" fill="#2C4A4A">Tambopata</text>
  <text x="32.0" y="306.6" font-family="Inter, Roboto, Arial, sans-serif" font-size="12" font-weight="500" fill="#2E5E3E">Precio maximo</text>
  <rect x="32" y="320" width="326" height="44" rx="10" fill="#FAF9F6" stroke="#8B5E3C" stroke-width="1.2"/>
  <text x="44.0" y="337.3" font-family="Inter, Roboto, Arial, sans-serif" font-size="14" font-weight="400" fill="#2C4A4A">S/ 500</text>
</g>
<g id="chip-0 estrellas">
  <rect x="16" y="360" width="127" height="32" rx="16" fill="#FAF9F6" stroke="#2E5E3E" stroke-width="1"/>
  <text x="79.5" y="372.6" font-family="Inter, Roboto, Arial, sans-serif" font-size="12" font-weight="600" fill="#2E5E3E" text-anchor="middle">0 estrellas</text>
</g>
<g id="chip-3 estrellas">
  <rect x="110" y="360" width="127" height="32" rx="16" fill="#FAF9F6" stroke="#2E5E3E" stroke-width="1"/>
  <text x="173.5" y="372.6" font-family="Inter, Roboto, Arial, sans-serif" font-size="12" font-weight="600" fill="#2E5E3E" text-anchor="middle">3 estrellas</text>
</g>
<g id="chip-4 estrellas">
  <rect x="196" y="360" width="127" height="32" rx="16" fill="#2E5E3E"/>
  <text x="259.5" y="372.6" font-family="Inter, Roboto, Arial, sans-serif" font-size="12" font-weight="600" fill="#FAF9F6" text-anchor="middle">4 estrellas</text>
</g>
<g id="chip-5 estrellas">
  <rect x="282" y="360" width="127" height="32" rx="16" fill="#FAF9F6" stroke="#2E5E3E" stroke-width="1"/>
  <text x="345.5" y="372.6" font-family="Inter, Roboto, Arial, sans-serif" font-size="12" font-weight="600" fill="#2E5E3E" text-anchor="middle">5 estrellas</text>
</g>
<g id="hotel-offer" filter="url(#shadow-sm)">
  <rect x="16" y="404" width="358" height="144" rx="16" fill="#FAF9F6"/>
  <g id="img-ph">
  <rect x="28" y="416" width="110" height="120" rx="12" fill="#E8EDE9" stroke="#2E5E3E" stroke-width="1"/>
  <line x1="36" y1="424" x2="130" y2="528" stroke="#2E5E3E" stroke-width="1" stroke-opacity="0.25"/>
  <line x1="130" y1="424" x2="36" y2="528" stroke="#2E5E3E" stroke-width="1" stroke-opacity="0.25"/>
  <text x="83.0" y="472.2" font-family="Inter, Roboto, Arial, sans-serif" font-size="11" font-weight="400" fill="#2C4A4A" text-anchor="middle" opacity="0.55">Hotel</text>
</g>
  <rect x="28" y="422" width="48" height="20" rx="6" fill="#E8954A"/>
  <text x="52.0" y="427.8" font-family="Inter, Roboto, Arial, sans-serif" font-size="10" font-weight="700" fill="#FAF9F6" text-anchor="middle">Oferta</text>
  <text x="150.0" y="429.7" font-family="Inter, Roboto, Arial, sans-serif" font-size="15" font-weight="600" fill="#1A2E1A">Eco Lodge Selva Verde</text>
  <text x="150.0" y="452.6" font-family="Inter, Roboto, Arial, sans-serif" font-size="12" font-weight="400" fill="#2C4A4A">Puerto Maldonado</text>
  <text x="150.0" y="517.3" font-family="Inter, Roboto, Arial, sans-serif" font-size="14" font-weight="700" fill="#2E5E3E">desde S/ 280</text>
</g>
<g id="hotel-offer" filter="url(#shadow-sm)">
  <rect x="16" y="564" width="358" height="144" rx="16" fill="#FAF9F6"/>
  <g id="img-ph">
  <rect x="28" y="576" width="110" height="120" rx="12" fill="#E8EDE9" stroke="#2E5E3E" stroke-width="1"/>
  <line x1="36" y1="584" x2="130" y2="688" stroke="#2E5E3E" stroke-width="1" stroke-opacity="0.25"/>
  <line x1="130" y1="584" x2="36" y2="688" stroke="#2E5E3E" stroke-width="1" stroke-opacity="0.25"/>
  <text x="83.0" y="632.2" font-family="Inter, Roboto, Arial, sans-serif" font-size="11" font-weight="400" fill="#2C4A4A" text-anchor="middle" opacity="0.55">Hotel</text>
</g>
  <rect x="28" y="582" width="48" height="20" rx="6" fill="#E8954A"/>
  <text x="52.0" y="587.8" font-family="Inter, Roboto, Arial, sans-serif" font-size="10" font-weight="700" fill="#FAF9F6" text-anchor="middle">Oferta</text>
  <text x="150.0" y="589.7" font-family="Inter, Roboto, Arial, sans-serif" font-size="15" font-weight="600" fill="#1A2E1A">Tambopata Jungle Lodge</text>
  <text x="150.0" y="612.6" font-family="Inter, Roboto, Arial, sans-serif" font-size="12" font-weight="400" fill="#2C4A4A">Tambopata</text>
  <text x="150.0" y="677.3" font-family="Inter, Roboto, Arial, sans-serif" font-size="14" font-weight="700" fill="#2E5E3E">desde S/ 200</text>
</g>
  </g>
</svg>