<?xml version="1.0" encoding="UTF-8"?>
<svg xmlns="http://www.w3.org/2000/svg" xmlns:xlink="http://www.w3.org/1999/xlink"
     width="390" height="844" viewBox="0 0 390 844" preserveAspectRatio="xMidYMid meet">
  <title>Drawer Cliente</title>
  <defs>
    <linearGradient id="gradDrawer" x1="0" y1="0" x2="0" y2="1">
      <stop offset="0%" stop-color="#2E5E3E"/>
      <stop offset="100%" stop-color="#1E3D2A"/>
    </linearGradient>
    <linearGradient id="gradHero" x1="0" y1="0" x2="0" y2="1">
      <stop offset="0%" stop-color="#000000" stop-opacity="0.35"/>
      <stop offset="50%" stop-color="#000000" stop-opacity="0"/>
      <stop offset="100%" stop-color="#000000" stop-opacity="0.55"/>
    </linearGradient>
    <clipPath id="clipFrame"><rect width="390" height="844"/></clipPath>
    <filter id="shadow-sm" x="-8%" y="-8%" width="116%" height="120%">
      <feDropShadow dx="0" dy="2" stdDeviation="3" flood-color="#000000" flood-opacity="0.08"/>
    </filter>
    <filter id="shadow-md" x="-8%" y="-8%" width="116%" height="120%">
      <feDropShadow dx="0" dy="4" stdDeviation="6" flood-color="#000000" flood-opacity="0.12"/>
    </filter>
  </defs>
  <g id="screen">
<rect x="0" y="0" width="390" height="844" rx="0" fill="#FAF9F6"/>
<rect width="390" height="844" fill="#000000" fill-opacity="0.48"/>
<g id="drawer" filter="url(#shadow-md)">
  <rect x="0" y="51" width="304" height="793" rx="28" fill="#FAF9F6"/>
  <rect x="0" y="51" width="304" height="100" rx="28" fill="url(#gradDrawer)"/>
  <text x="20.0" y="80.6" font-family="Georgia, 'Times New Roman', serif" font-size="20" font-weight="700" fill="#FAF9F6">Selva Booking</text>
  <text x="20.0" y="103.6" font-family="Inter, Roboto, Arial, sans-serif" font-size="12" font-weight="400" fill="#FAF9F6" opacity="0.85">Tu selva, tu destino</text>
  <text x="284.0" y="92.6" font-family="Inter, Roboto, Arial, sans-serif" font-size="20" font-weight="600" fill="#FAF9F6" text-anchor="end">X</text>
  <rect x="20" y="163" width="264" height="96" rx="18" fill="#F3F1EA"/>
  <g id="img-ph">
  <rect x="32" y="175" width="72" height="72" rx="36" fill="#E8EDE9" stroke="#2E5E3E" stroke-width="1"/>
  <line x1="40" y1="183" x2="96" y2="239" stroke="#2E5E3E" stroke-width="1" stroke-opacity="0.25"/>
  <line x1="96" y1="183" x2="40" y2="239" stroke="#2E5E3E" stroke-width="1" stroke-opacity="0.25"/>
  <text x="68.0" y="207.2" font-family="Inter, Roboto, Arial, sans-serif" font-size="11" font-weight="400" fill="#2C4A4A" text-anchor="middle" opacity="0.55">Foto</text>
</g>
  <text x="116.0" y="185.6" font-family="Inter, Roboto, Arial, sans-serif" font-size="12" font-weight="400" fill="#2E5E3E" opacity="0.7">Hola!</text>
  <text x="116.0" y="207.1" font-family="Inter, Roboto, Arial, sans-serif" font-size="16" font-weight="700" fill="#1A2E1A">Usuario Demo</text>
  <text x="116.0" y="227.6" font-family="Inter, Roboto, Arial, sans-serif" font-size="12" font-weight="400" fill="#2C4A4A">demo@selvabooking.com</text>
  <rect x="116" y="239" width="80" height="24" rx="12" fill="#4A9B5C"/>
  <rect x="116" y="239" width="80" height="24" rx="12" fill="#4A9B5C" fill-opacity="0.2"/>
  <text x="156.0" y="247.2" font-family="Inter, Roboto, Arial, sans-serif" font-size="11" font-weight="600" fill="#2E5E3E" text-anchor="middle">Cliente</text>
</g>
<text x="24.0" y="259.2" font-family="Inter, Roboto, Arial, sans-serif" font-size="11" font-weight="600" fill="#2E5E3E" opacity="0.65">MENU PRINCIPAL</text>
<g id="nav-Inicio">
  <rect x="20" y="281" width="264" height="68" rx="14" fill="#F3F1EA"/>
  <g id="img-ph">
  <rect x="32" y="294" width="42" height="42" rx="10" fill="#E8EDE9" stroke="#2E5E3E" stroke-width="1"/>
  <line x1="40" y1="302" x2="66" y2="328" stroke="#2E5E3E" stroke-width="1" stroke-opacity="0.25"/>
  <line x1="66" y1="302" x2="40" y2="328" stroke="#2E5E3E" stroke-width="1" stroke-opacity="0.25"/>
  
</g>
  <text x="84.0" y="300.7" font-family="Inter, Roboto, Arial, sans-serif" font-size="15" font-weight="600" fill="#1A2E1A">Inicio</text>
  <text x="84.0" y="321.6" font-family="Inter, Roboto, Arial, sans-serif" font-size="12" font-weight="400" fill="#2C4A4A" opacity="0.75">Explora hoteles destacados</text>
</g>
<g id="nav-Buscar">
  <rect x="20" y="359" width="264" height="68" rx="14" fill="#FAF9F6"/>
  <g id="img-ph">
  <rect x="32" y="372" width="42" height="42" rx="10" fill="#E8EDE9" stroke="#2E5E3E" stroke-width="1"/>
  <line x1="40" y1="380" x2="66" y2="406" stroke="#2E5E3E" stroke-width="1" stroke-opacity="0.25"/>
  <line x1="66" y1="380" x2="40" y2="406" stroke="#2E5E3E" stroke-width="1" stroke-opacity="0.25"/>
  
</g>
  <text x="84.0" y="378.7" font-family="Inter, Roboto, Arial, sans-serif" font-size="15" font-weight="500" fill="#1A2E1A">Buscar</text>
  <text x="84.0" y="399.6" font-family="Inter, Roboto, Arial, sans-serif" font-size="12" font-weight="400" fill="#2C4A4A" opacity="0.75">Compara precios y ofertas</text>
</g>
<g id="nav-Mis Reservas">
  <rect x="20" y="435" width="264" height="68" rx="14" fill="#FAF9F6"/>
  <g id="img-ph">
  <rect x="32" y="448" width="42" height="42" rx="10" fill="#E8EDE9" stroke="#2E5E3E" stroke-width="1"/>
  <line x1="40" y1="456" x2="66" y2="482" stroke="#2E5E3E" stroke-width="1" stroke-opacity="0.25"/>
  <line x1="66" y1="456" x2="40" y2="482" stroke="#2E5E3E" stroke-width="1" stroke-opacity="0.25"/>
  
</g>
  <text x="84.0" y="454.7" font-family="Inter, Roboto, Arial, sans-serif" font-size="15" font-weight="500" fill="#1A2E1A">Mis Reservas</text>
  <text x="84.0" y="475.6" font-family="Inter, Roboto, Arial, sans-serif" font-size="12" font-weight="400" fill="#2C4A4A" opacity="0.75">Consulta tus viajes activos</text>
</g>
<text x="24.0" y="495.2" font-family="Inter, Roboto, Arial, sans-serif" font-size="11" font-weight="600" fill="#2E5E3E" opacity="0.65">TU CUENTA</text>
<g id="nav-Mi Cuenta">
  <rect x="20" y="517" width="264" height="68" rx="14" fill="#FAF9F6"/>
  <g id="img-ph">
  <rect x="32" y="530" width="42" height="42" rx="10" fill="#E8EDE9" stroke="#2E5E3E" stroke-width="1"/>
  <line x1="40" y1="538" x2="66" y2="564" stroke="#2E5E3E" stroke-width="1" stroke-opacity="0.25"/>
  <line x1="66" y1="538" x2="40" y2="564" stroke="#2E5E3E" stroke-width="1" stroke-opacity="0.25"/>
  
</g>
  <text x="84.0" y="536.7" font-family="Inter, Roboto, Arial, sans-serif" font-size="15" font-weight="500" fill="#1A2E1A">Mi Cuenta</text>
  <text x="84.0" y="557.6" font-family="Inter, Roboto, Arial, sans-serif" font-size="12" font-weight="400" fill="#2C4A4A" opacity="0.75">Perfil, foto y preferencias</text>
</g>
<g id="nav-Soporte y Ayuda">
  <rect x="20" y="595" width="264" height="68" rx="14" fill="#FAF9F6"/>
  <g id="img-ph">
  <rect x="32" y="608" width="42" height="42" rx="10" fill="#E8EDE9" stroke="#2E5E3E" stroke-width="1"/>
  <line x1="40" y1="616" x2="66" y2="642" stroke="#2E5E3E" stroke-width="1" stroke-opacity="0.25"/>
  <line x1="66" y1="616" x2="40" y2="642" stroke="#2E5E3E" stroke-width="1" stroke-opacity="0.25"/>
  
</g>
  <text x="84.0" y="614.7" font-family="Inter, Roboto, Arial, sans-serif" font-size="15" font-weight="500" fill="#1A2E1A">Soporte y Ayuda</text>
  <text x="84.0" y="635.6" font-family="Inter, Roboto, Arial, sans-serif" font-size="12" font-weight="400" fill="#2C4A4A" opacity="0.75">Preguntas frecuentes</text>
</g>
<text x="24.0" y="655.2" font-family="Inter, Roboto, Arial, sans-serif" font-size="11" font-weight="600" fill="#2E5E3E" opacity="0.65">SESION</text>
<g id="nav-Cerrar Sesion">
  <rect x="20" y="677" width="264" height="68" rx="14" fill="#FAF9F6"/>
  <g id="img-ph">
  <rect x="32" y="690" width="42" height="42" rx="10" fill="#E8EDE9" stroke="#2E5E3E" stroke-width="1"/>
  <line x1="40" y1="698" x2="66" y2="724" stroke="#2E5E3E" stroke-width="1" stroke-opacity="0.25"/>
  <line x1="66" y1="698" x2="40" y2="724" stroke="#2E5E3E" stroke-width="1" stroke-opacity="0.25"/>
  
</g>
  <text x="84.0" y="696.7" font-family="Inter, Roboto, Arial, sans-serif" font-size="15" font-weight="500" fill="#1A2E1A">Cerrar Sesion</text>
  <text x="84.0" y="717.6" font-family="Inter, Roboto, Arial, sans-serif" font-size="12" font-weight="400" fill="#2C4A4A" opacity="0.75">Salir de tu cuenta</text>
</g>
<g id="drawer-footer">
  <rect x="128" y="820" width="48" height="4" rx="2" fill="#2E5E3E"/>
  <rect x="128" y="820" width="48" height="4" rx="2" fill="#2E5E3E" fill-opacity="0.35"/>
  <text x="20.0" y="792.2" font-family="Inter, Roboto, Arial, sans-serif" font-size="11" font-weight="400" fill="#2E5E3E" opacity="0.7">Selva Booking v1.0</text>
</g>
  </g>
</svg>