<?xml version="1.0" encoding="UTF-8"?>
<svg xmlns="http://www.w3.org/2000/svg" xmlns:xlink="http://www.w3.org/1999/xlink"
     width="390" height="844" viewBox="0 0 390 844" preserveAspectRatio="xMidYMid meet">
  <title>Gestion de Hoteles</title>
  <defs>
    <linearGradient id="gradDrawer" x1="0" y1="0" x2="0" y2="1">
      <stop offset="0%" stop-color="#2E5E3E"/>
      <stop offset="100%" stop-color="#1E3D2A"/>
    </linearGradient>
    <linearGradient id="gradHero" x1="0" y1="0" x2="0" y2="1">
      <stop offset="0%" stop-color="#000000" stop-opacity="0.35"/>
      <stop offset="50%" stop-color="#000000" stop-opacity="0"/>
      <stop offset="100%" stop-color="#000000" stop-opacity="0.55"/>
    </linearGradient>
    <clipPath id="clipFrame"><rect width="390" height="844"/></clipPath>
    <filter id="shadow-sm" x="-8%" y="-8%" width="116%" height="120%">
      <feDropShadow dx="0" dy="2" stdDeviation="3" flood-color="#000000" flood-opacity="0.08"/>
    </filter>
    <filter id="shadow-md" x="-8%" y="-8%" width="116%" height="120%">
      <feDropShadow dx="0" dy="4" stdDeviation="6" flood-color="#000000" flood-opacity="0.12"/>
    </filter>
  </defs>
  <g id="screen">
<rect x="0" y="0" width="390" height="844" rx="0" fill="#FAF9F6"/>
<g id="top-bar">
  <rect x="0" y="0" width="390" height="64" rx="0" fill="#FAF9F6"/>
  <g transform="translate(16,20)">
  <rect x="0" y="0" width="18" height="2.5" rx="1.2" fill="#2E5E3E"/>
  <rect x="0" y="7" width="18" height="2.5" rx="1.2" fill="#2E5E3E"/>
  <rect x="0" y="14" width="18" height="2.5" rx="1.2" fill="#2E5E3E"/>
</g>
  <text x="56.0" y="29.6" font-family="Georgia, 'Times New Roman', serif" font-size="20" font-weight="700" fill="#2E5E3E">Gestion de Hoteles</text>
</g>
<g id="admin-hotel" filter="url(#shadow-md)">
  <rect x="16" y="80" width="358" height="200" rx="16" fill="#F3F1EA"/>
  <g id="img-ph">
  <rect x="24" y="88" width="342" height="96" rx="12" fill="#E8EDE9" stroke="#2E5E3E" stroke-width="1"/>
  <line x1="32" y1="96" x2="358" y2="176" stroke="#2E5E3E" stroke-width="1" stroke-opacity="0.25"/>
  <line x1="358" y1="96" x2="32" y2="176" stroke="#2E5E3E" stroke-width="1" stroke-opacity="0.25"/>
  <text x="195.0" y="132.2" font-family="Inter, Roboto, Arial, sans-serif" font-size="11" font-weight="400" fill="#2C4A4A" text-anchor="middle" opacity="0.55">Hotel</text>
</g>
  <rect x="24" y="88" width="52" height="20" rx="6" fill="#E8954A"/>
  <text x="50.0" y="93.8" font-family="Inter, Roboto, Arial, sans-serif" font-size="10" font-weight="700" fill="#FAF9F6" text-anchor="middle">Oferta</text>
  <text x="32.0" y="204.1" font-family="Inter, Roboto, Arial, sans-serif" font-size="16" font-weight="600" fill="#1A2E1A">Eco Lodge Selva Verde</text>
  <text x="32.0" y="226.6" font-family="Inter, Roboto, Arial, sans-serif" font-size="12" font-weight="400" fill="#2C4A4A">Puerto Maldonado - Ecologico</text>
  <text x="32.0" y="250.9" font-family="Inter, Roboto, Arial, sans-serif" font-size="13" font-weight="700" fill="#2E5E3E">Desde S/ 280 / noche</text>
</g>
<g id="admin-hotel" filter="url(#shadow-md)">
  <rect x="16" y="296" width="358" height="200" rx="16" fill="#F3F1EA"/>
  <g id="img-ph">
  <rect x="24" y="304" width="342" height="96" rx="12" fill="#E8EDE9" stroke="#2E5E3E" stroke-width="1"/>
  <line x1="32" y1="312" x2="358" y2="392" stroke="#2E5E3E" stroke-width="1" stroke-opacity="0.25"/>
  <line x1="358" y1="312" x2="32" y2="392" stroke="#2E5E3E" stroke-width="1" stroke-opacity="0.25"/>
  <text x="195.0" y="348.2" font-family="Inter, Roboto, Arial, sans-serif" font-size="11" font-weight="400" fill="#2C4A4A" text-anchor="middle" opacity="0.55">Hotel</text>
</g>
  
  <text x="32.0" y="420.1" font-family="Inter, Roboto, Arial, sans-serif" font-size="16" font-weight="600" fill="#1A2E1A">Tambopata Jungle Lodge</text>
  <text x="32.0" y="442.6" font-family="Inter, Roboto, Arial, sans-serif" font-size="12" font-weight="400" fill="#2C4A4A">Tambopata</text>
  <text x="32.0" y="466.9" font-family="Inter, Roboto, Arial, sans-serif" font-size="13" font-weight="700" fill="#2E5E3E">Desde S/ 200 / noche</text>
</g>
<g id="fab">
  <rect x="322" y="776" width="52" height="52" rx="26" fill="#E8954A"/>
  <text x="348.0" y="802.6" font-family="Inter, Roboto, Arial, sans-serif" font-size="28" font-weight="600" fill="#FAF9F6" text-anchor="middle">+</text>
</g>
  </g>
</svg>