<?xml version="1.0" encoding="UTF-8"?>
<svg xmlns="http://www.w3.org/2000/svg" xmlns:xlink="http://www.w3.org/1999/xlink"
     width="390" height="844" viewBox="0 0 390 844" preserveAspectRatio="xMidYMid meet">
  <title>Nueva Reserva Admin</title>
  <defs>
    <linearGradient id="gradDrawer" x1="0" y1="0" x2="0" y2="1">
      <stop offset="0%" stop-color="#2E5E3E"/>
      <stop offset="100%" stop-color="#1E3D2A"/>
    </linearGradient>
    <linearGradient id="gradHero" x1="0" y1="0" x2="0" y2="1">
      <stop offset="0%" stop-color="#000000" stop-opacity="0.35"/>
      <stop offset="50%" stop-color="#000000" stop-opacity="0"/>
      <stop offset="100%" stop-color="#000000" stop-opacity="0.55"/>
    </linearGradient>
    <clipPath id="clipFrame"><rect width="390" height="844"/></clipPath>
    <filter id="shadow-sm" x="-8%" y="-8%" width="116%" height="120%">
      <feDropShadow dx="0" dy="2" stdDeviation="3" flood-color="#000000" flood-opacity="0.08"/>
    </filter>
    <filter id="shadow-md" x="-8%" y="-8%" width="116%" height="120%">
      <feDropShadow dx="0" dy="4" stdDeviation="6" flood-color="#000000" flood-opacity="0.12"/>
    </filter>
  </defs>
  <g id="screen">
<rect x="0" y="0" width="390" height="844" rx="0" fill="#FAF9F6"/>
<g id="top-bar">
  <rect x="0" y="0" width="390" height="64" rx="0" fill="#FAF9F6"/>
  <g transform="translate(16,20)">
  <rect x="0" y="0" width="18" height="2.5" rx="1.2" fill="#2E5E3E"/>
  <rect x="0" y="7" width="18" height="2.5" rx="1.2" fill="#2E5E3E"/>
  <rect x="0" y="14" width="18" height="2.5" rx="1.2" fill="#2E5E3E"/>
</g>
  <text x="56.0" y="29.6" font-family="Georgia, 'Times New Roman', serif" font-size="20" font-weight="700" fill="#2E5E3E">Gestion de Reservas</text>
</g>
<rect width="390" height="844" fill="#000000" fill-opacity="0.45"/>
<g id="reservation-form" filter="url(#shadow-md)">
  <rect x="16" y="80" width="358" height="700" rx="20" fill="#FAF9F6"/>
  <text x="32.0" y="106.8" font-family="Inter, Roboto, Arial, sans-serif" font-size="18" font-weight="700" fill="#2E5E3E">Nueva reserva</text>
  <text x="16.0" y="147.6" font-family="Georgia, 'Times New Roman', serif" font-size="20" font-weight="700" fill="#2E5E3E">Hotel</text>
  <rect x="32" y="162" width="326" height="48" rx="10" fill="#F3F1EA"/>
  <text x="44.0" y="179.3" font-family="Inter, Roboto, Arial, sans-serif" font-size="14" font-weight="600" fill="#1A2E1A">Eco Lodge Selva Verde</text>
  <text x="32.0" y="234.6" font-family="Inter, Roboto, Arial, sans-serif" font-size="12" font-weight="500" fill="#2E5E3E">Nombre del cliente</text>
  <rect x="32" y="248" width="326" height="44" rx="10" fill="#FAF9F6" stroke="#8B5E3C" stroke-width="1.2"/>
  <text x="44.0" y="265.3" font-family="Inter, Roboto, Arial, sans-serif" font-size="14" font-weight="400" fill="#2C4A4A">Jesus Uceda</text>
  <text x="32.0" y="314.6" font-family="Inter, Roboto, Arial, sans-serif" font-size="12" font-weight="500" fill="#2E5E3E">Email</text>
  <rect x="32" y="328" width="326" height="44" rx="10" fill="#FAF9F6" stroke="#8B5E3C" stroke-width="1.2"/>
  <text x="44.0" y="345.3" font-family="Inter, Roboto, Arial, sans-serif" font-size="14" font-weight="400" fill="#2C4A4A">jesus@email.com</text>
  <g id="btn-Guardar">
  <rect x="32" y="680" width="326" height="48" rx="12" fill="#2E5E3E"/>
  <text x="195.0" y="699.3" font-family="Inter, Roboto, Arial, sans-serif" font-size="14" font-weight="600" fill="#FAF9F6" text-anchor="middle">Guardar</text>
</g>
</g>
  </g>
</svg>