<?xml version="1.0" encoding="UTF-8"?>
<svg xmlns="http://www.w3.org/2000/svg" xmlns:xlink="http://www.w3.org/1999/xlink"
     width="390px" height="844px" viewBox="0 0 390 844"
     preserveAspectRatio="xMidYMid meet" fill="none">
  <title>Inicio</title>
  <defs>
    <linearGradient id="gradDrawer" x1="0" y1="0" x2="0" y2="1">
      <stop offset="0%" stop-color="#2E5E3E"/>
      <stop offset="100%" stop-color="#1E3D2A"/>
    </linearGradient>
    <linearGradient id="gradHero" x1="0" y1="0" x2="0" y2="1">
      <stop offset="0%" stop-color="#1E3D2A" stop-opacity="0"/>
      <stop offset="100%" stop-color="#000000" stop-opacity="0.55"/>
    </linearGradient>
    <clipPath id="clipFrame">
      <rect x="0" y="0" width="390" height="844"/>
    </clipPath>
    <clipPath id="clipLogo">
      <rect x="45" y="318" width="300" height="128" rx="8"/>
    </clipPath>
  </defs>
  <g id="screen" clip-path="url(#clipFrame)">
    <rect id="background" x="0" y="0" width="390" height="844" fill="#FAF9F6"/>
    <g id="status-bar">
      <text x="24.0" y="20.0" font-family="Inter, Arial, sans-serif" font-size="12" font-weight="600" fill="#2C4A4A">9:41</text>
      <text x="330.0" y="20.0" font-family="Inter, Arial, sans-serif" font-size="11" font-weight="400" fill="#2C4A4A" text-anchor="end">100%</text>
    </g>
    <g id="top-bar">
      <rect x="0" y="36" width="390" height="56" fill="#FAF9F6"/>
      <line x1="0" y1="92" x2="390" y2="92" stroke="#F3F1EA" stroke-width="1"/>
            <g id="menu-icon" transform="translate(16,48)">
        <rect x="0" y="2" width="18" height="2.5" rx="1.2" fill="#2E5E3E"/>
        <rect x="0" y="8" width="18" height="2.5" rx="1.2" fill="#2E5E3E"/>
        <rect x="0" y="14" width="18" height="2.5" rx="1.2" fill="#2E5E3E"/>
      </g>
      <text x="48.0" y="68.0" font-family="Georgia, Times New Roman, serif" font-size="18" font-weight="700" fill="#2E5E3E">Selva Booking</text>
    </g>
    <g id="search-bar">
      <rect x="16" y="108" width="358" height="48" rx="16" fill="#FAF9F6" stroke="#2E5E3E" stroke-width="1" stroke-opacity="0.3"/>
          <g transform="translate(28,124)">
      <circle cx="5" cy="5" r="5" stroke="#2E5E3E" stroke-width="1.5" fill="none"/>
      <line x1="7" y1="7" x2="14" y2="14" stroke="#2E5E3E" stroke-width="1.5" stroke-linecap="round"/>
    </g>
      <text x="52.0" y="138.0" font-family="Inter, Arial, sans-serif" font-size="14" font-weight="400" fill="#2C4A4A">Buscar hoteles por ciudad o nombre...</text>
    </g>
    <g id="quick-access">
      <rect x="16" y="172" width="358" height="72" rx="16" fill="#F3F1EA"/>
          <g transform="translate(28,188)">
      <path d="M4 2 H12 V14 L8 11 L4 14 Z" fill="#2E5E3E"/>
    </g>
      <text x="56.0" y="206.0" font-family="Inter, Arial, sans-serif" font-size="16" font-weight="700" fill="#1A2E1A">Mis Reservas</text>
      <text x="56.0" y="226.0" font-family="Inter, Arial, sans-serif" font-size="12" font-weight="400" fill="#2C4A4A">Consulta y gestiona tus reservas</text>
    </g>
<text x="20.0" y="270.0" font-family="Georgia, Times New Roman, serif" font-size="20" font-weight="700" fill="#2E5E3E">Hoteles destacados</text>
    <g id="hotel-card">
      <rect x="16" y="290" width="358" height="120" rx="16" fill="#F3F1EA"/>
      <rect x="28" y="302" width="96" height="96" rx="12" fill="#2E5E3E" fill-opacity="0.15"/>
      <rect x="44" y="330" width="64" height="40" rx="8" fill="#2E5E3E" fill-opacity="0.08"/>
      <text x="76.0" y="354.0" font-family="Inter, Arial, sans-serif" font-size="11" font-weight="600" fill="#2E5E3E" text-anchor="middle" dominant-baseline="middle">Hotel</text>
            <rect x="28" y="298" width="52" height="20" rx="6" fill="#E8954A"/>
      <text x="54.0" y="312.0" font-family="Inter, Arial, sans-serif" font-size="10" font-weight="700" fill="#FAF9F6" text-anchor="middle" dominant-baseline="middle">Oferta</text>
      <text x="136.0" y="326.0" font-family="Inter, Arial, sans-serif" font-size="15" font-weight="700" fill="#1A2E1A">Eco Lodge Selva Verde</text>
      <text x="136.0" y="346.0" font-family="Inter, Arial, sans-serif" font-size="12" font-weight="400" fill="#2C4A4A">Puerto Maldonado</text>
      <text x="136.0" y="374.0" font-family="Inter, Arial, sans-serif" font-size="13" font-weight="700" fill="#2E5E3E">desde S/ 280</text>
      <text x="136.0" y="394.0" font-family="Inter, Arial, sans-serif" font-size="11" font-weight="400" fill="#2C4A4A">5 estrellas  4.8</text>
    </g>
<text x="20.0" y="430.0" font-family="Georgia, Times New Roman, serif" font-size="20" font-weight="700" fill="#2E5E3E">Ofertas especiales</text>
    <g id="hotel-card">
      <rect x="16" y="450" width="358" height="120" rx="16" fill="#F3F1EA"/>
      <rect x="28" y="462" width="96" height="96" rx="12" fill="#2E5E3E" fill-opacity="0.15"/>
      <rect x="44" y="490" width="64" height="40" rx="8" fill="#2E5E3E" fill-opacity="0.08"/>
      <text x="76.0" y="514.0" font-family="Inter, Arial, sans-serif" font-size="11" font-weight="600" fill="#2E5E3E" text-anchor="middle" dominant-baseline="middle">Hotel</text>
            <rect x="28" y="458" width="52" height="20" rx="6" fill="#E8954A"/>
      <text x="54.0" y="472.0" font-family="Inter, Arial, sans-serif" font-size="10" font-weight="700" fill="#FAF9F6" text-anchor="middle" dominant-baseline="middle">Oferta</text>
      <text x="136.0" y="486.0" font-family="Inter, Arial, sans-serif" font-size="15" font-weight="700" fill="#1A2E1A">Cabanas Madre de Dios</text>
      <text x="136.0" y="506.0" font-family="Inter, Arial, sans-serif" font-size="12" font-weight="400" fill="#2C4A4A">Puerto Maldonado</text>
      <text x="136.0" y="534.0" font-family="Inter, Arial, sans-serif" font-size="13" font-weight="700" fill="#2E5E3E">desde S/ 120</text>
      <text x="136.0" y="554.0" font-family="Inter, Arial, sans-serif" font-size="11" font-weight="400" fill="#2C4A4A">5 estrellas  4.8</text>
    </g>
<text x="20.0" y="590.0" font-family="Georgia, Times New Roman, serif" font-size="20" font-weight="700" fill="#2E5E3E">Recomendaciones</text>
    <g id="hotel-card">
      <rect x="16" y="610" width="358" height="120" rx="16" fill="#F3F1EA"/>
      <rect x="28" y="622" width="96" height="96" rx="12" fill="#2E5E3E" fill-opacity="0.15"/>
      <rect x="44" y="650" width="64" height="40" rx="8" fill="#2E5E3E" fill-opacity="0.08"/>
      <text x="76.0" y="674.0" font-family="Inter, Arial, sans-serif" font-size="11" font-weight="600" fill="#2E5E3E" text-anchor="middle" dominant-baseline="middle">Hotel</text>
      
      <text x="136.0" y="646.0" font-family="Inter, Arial, sans-serif" font-size="15" font-weight="700" fill="#1A2E1A">Amazonia Rainforest Resort</text>
      <text x="136.0" y="666.0" font-family="Inter, Arial, sans-serif" font-size="12" font-weight="400" fill="#2C4A4A">Tambopata</text>
      <text x="136.0" y="694.0" font-family="Inter, Arial, sans-serif" font-size="13" font-weight="700" fill="#2E5E3E">desde S/ 450</text>
      <text x="136.0" y="714.0" font-family="Inter, Arial, sans-serif" font-size="11" font-weight="400" fill="#2C4A4A">5 estrellas  4.8</text>
    </g>
  </g>
</svg>