<?xml version="1.0" encoding="UTF-8"?>
<svg xmlns="http://www.w3.org/2000/svg" xmlns:xlink="http://www.w3.org/1999/xlink"
     width="390px" height="844px" viewBox="0 0 390 844"
     preserveAspectRatio="xMidYMid meet" fill="none">
  <title>Mi perfil</title>
  <defs>
    <linearGradient id="gradDrawer" x1="0" y1="0" x2="0" y2="1">
      <stop offset="0%" stop-color="#2E5E3E"/>
      <stop offset="100%" stop-color="#1E3D2A"/>
    </linearGradient>
    <linearGradient id="gradHero" x1="0" y1="0" x2="0" y2="1">
      <stop offset="0%" stop-color="#1E3D2A" stop-opacity="0"/>
      <stop offset="100%" stop-color="#000000" stop-opacity="0.55"/>
    </linearGradient>
    <clipPath id="clipFrame">
      <rect x="0" y="0" width="390" height="844"/>
    </clipPath>
    <clipPath id="clipLogo">
      <rect x="45" y="318" width="300" height="128" rx="8"/>
    </clipPath>
  </defs>
  <g id="screen" clip-path="url(#clipFrame)">
    <rect id="background" x="0" y="0" width="390" height="844" fill="#FAF9F6"/>
    <g id="status-bar">
      <text x="24.0" y="20.0" font-family="Inter, Arial, sans-serif" font-size="12" font-weight="600" fill="#2C4A4A">9:41</text>
      <text x="330.0" y="20.0" font-family="Inter, Arial, sans-serif" font-size="11" font-weight="400" fill="#2C4A4A" text-anchor="end">100%</text>
    </g>
    <g id="top-bar">
      <rect x="0" y="36" width="390" height="56" fill="#FAF9F6"/>
      <line x1="0" y1="92" x2="390" y2="92" stroke="#F3F1EA" stroke-width="1"/>
            <g id="menu-icon" transform="translate(16,48)">
        <rect x="0" y="2" width="18" height="2.5" rx="1.2" fill="#2E5E3E"/>
        <rect x="0" y="8" width="18" height="2.5" rx="1.2" fill="#2E5E3E"/>
        <rect x="0" y="14" width="18" height="2.5" rx="1.2" fill="#2E5E3E"/>
      </g>
      <text x="48.0" y="68.0" font-family="Georgia, Times New Roman, serif" font-size="18" font-weight="700" fill="#2E5E3E">Mi perfil</text>
    </g>
<rect x="16" y="108" width="358" height="130" rx="20" fill="#F3F1EA"/>
<circle cx="60" cy="158" r="36" fill="#2E5E3E" fill-opacity="0.12"/>
<circle cx="88" cy="186" r="12" fill="#2E5E3E"/>
<text x="112.0" y="156.0" font-family="Inter, Arial, sans-serif" font-size="18" font-weight="700" fill="#1A2E1A">Jesus Uceda</text>
<text x="112.0" y="178.0" font-family="Inter, Arial, sans-serif" font-size="12" font-weight="400" fill="#2C4A4A">jesus@selvabooking.com</text>
<rect x="112" y="186" width="80" height="22" rx="11" fill="#4A9B5C" fill-opacity="0.18"/>
<text x="152.0" y="200.0" font-family="Inter, Arial, sans-serif" font-size="11" font-weight="600" fill="#2E5E3E" text-anchor="middle" dominant-baseline="middle">Cliente</text>
<rect x="16" y="256" width="358" height="180" rx="16" fill="#F3F1EA"/>
<text x="32.0" y="284.0" font-family="Inter, Arial, sans-serif" font-size="15" font-weight="700" fill="#2E5E3E">Informacion de la cuenta</text>
<text x="32.0" y="314.0" font-family="Inter, Arial, sans-serif" font-size="13" font-weight="400" fill="#2C4A4A">Jesus Uceda</text>
<text x="32.0" y="342.0" font-family="Inter, Arial, sans-serif" font-size="13" font-weight="400" fill="#2C4A4A">jesus@selvabooking.com</text>
<text x="32.0" y="370.0" font-family="Inter, Arial, sans-serif" font-size="13" font-weight="400" fill="#2C4A4A">Tipo: Cliente</text>
    <g id="btn-outline">
      <rect x="24" y="390" width="342" height="44" rx="12" fill="#FAF9F6" stroke="#2E5E3E" stroke-width="1.5"/>
      <text x="195.0" y="412.0" font-family="Inter, Arial, sans-serif" font-size="14" font-weight="600" fill="#2E5E3E" text-anchor="middle" dominant-baseline="middle">Editar nombre</text>
    </g>
<rect x="16" y="456" width="358" height="90" rx="16" fill="#F3F1EA"/>
<text x="32.0" y="486.0" font-family="Inter, Arial, sans-serif" font-size="15" font-weight="700" fill="#2E5E3E">Sesion</text>
    <g id="btn-outline">
      <rect x="24" y="510" width="342" height="44" rx="12" fill="#FAF9F6" stroke="#2E5E3E" stroke-width="1.5"/>
      <text x="195.0" y="532.0" font-family="Inter, Arial, sans-serif" font-size="14" font-weight="600" fill="#2E5E3E" text-anchor="middle" dominant-baseline="middle">Cerrar sesion</text>
    </g>
  </g>
</svg>