<?xml version="1.0" encoding="UTF-8"?>
<svg xmlns="http://www.w3.org/2000/svg" xmlns:xlink="http://www.w3.org/1999/xlink"
     width="390px" height="844px" viewBox="0 0 390 844"
     preserveAspectRatio="xMidYMid meet" fill="none">
  <title>Menu lateral</title>
  <defs>
    <linearGradient id="gradDrawer" x1="0" y1="0" x2="0" y2="1">
      <stop offset="0%" stop-color="#2E5E3E"/>
      <stop offset="100%" stop-color="#1E3D2A"/>
    </linearGradient>
    <linearGradient id="gradHero" x1="0" y1="0" x2="0" y2="1">
      <stop offset="0%" stop-color="#1E3D2A" stop-opacity="0"/>
      <stop offset="100%" stop-color="#000000" stop-opacity="0.55"/>
    </linearGradient>
    <clipPath id="clipFrame">
      <rect x="0" y="0" width="390" height="844"/>
    </clipPath>
    <clipPath id="clipLogo">
      <rect x="45" y="318" width="300" height="128" rx="8"/>
    </clipPath>
  </defs>
  <g id="screen" clip-path="url(#clipFrame)">
    <rect id="background" x="0" y="0" width="390" height="844" fill="#FAF9F6"/>
    <g id="status-bar">
      <text x="24.0" y="20.0" font-family="Inter, Arial, sans-serif" font-size="12" font-weight="600" fill="#2C4A4A">9:41</text>
      <text x="330.0" y="20.0" font-family="Inter, Arial, sans-serif" font-size="11" font-weight="400" fill="#2C4A4A" text-anchor="end">100%</text>
    </g>
    <g id="top-bar">
      <rect x="0" y="36" width="390" height="56" fill="#FAF9F6"/>
      <line x1="0" y1="92" x2="390" y2="92" stroke="#F3F1EA" stroke-width="1"/>
            <g id="menu-icon" transform="translate(16,48)">
        <rect x="0" y="2" width="18" height="2.5" rx="1.2" fill="#2E5E3E"/>
        <rect x="0" y="8" width="18" height="2.5" rx="1.2" fill="#2E5E3E"/>
        <rect x="0" y="14" width="18" height="2.5" rx="1.2" fill="#2E5E3E"/>
      </g>
      <text x="48.0" y="68.0" font-family="Georgia, Times New Roman, serif" font-size="18" font-weight="700" fill="#2E5E3E">Selva Booking</text>
    </g>
    <g id="background-content" opacity="0.35">
          <g id="hotel-card">
      <rect x="16" y="120" width="358" height="120" rx="16" fill="#F3F1EA"/>
      <rect x="28" y="132" width="96" height="96" rx="12" fill="#2E5E3E" fill-opacity="0.15"/>
      <rect x="44" y="160" width="64" height="40" rx="8" fill="#2E5E3E" fill-opacity="0.08"/>
      <text x="76.0" y="184.0" font-family="Inter, Arial, sans-serif" font-size="11" font-weight="600" fill="#2E5E3E" text-anchor="middle" dominant-baseline="middle">Hotel</text>
      
      <text x="136.0" y="156.0" font-family="Inter, Arial, sans-serif" font-size="15" font-weight="700" fill="#1A2E1A">Eco Lodge</text>
      <text x="136.0" y="176.0" font-family="Inter, Arial, sans-serif" font-size="12" font-weight="400" fill="#2C4A4A">Puerto Maldonado</text>
      <text x="136.0" y="204.0" font-family="Inter, Arial, sans-serif" font-size="13" font-weight="700" fill="#2E5E3E">desde S/ 280</text>
      <text x="136.0" y="224.0" font-family="Inter, Arial, sans-serif" font-size="11" font-weight="400" fill="#2C4A4A">5 estrellas  4.8</text>
    </g>
    </g>
    <g id="drawer-overlay">
      <rect x="0" y="0" width="390" height="844" fill="#000000" fill-opacity="0.48"/>
      <rect x="0" y="51" width="304" height="793" rx="28" fill="#FAF9F6"/>
      <rect x="0" y="51" width="304" height="88" rx="28" fill="url(#gradDrawer)"/>
      <text x="24.0" y="91.0" font-family="Georgia, Times New Roman, serif" font-size="20" font-weight="700" fill="#FAF9F6">Selva Booking</text>
      <text x="24.0" y="111.0" font-family="Inter, Arial, sans-serif" font-size="11" font-weight="400" fill="#FAF9F6">Tu selva, tu destino</text>
      <text x="272.0" y="99.0" font-family="Inter, Arial, sans-serif" font-size="18" font-weight="400" fill="#FAF9F6" text-anchor="end" dominant-baseline="middle">X</text>
      <rect x="20" y="147" width="264" height="96" rx="18" fill="#F3F1EA"/>
      <circle cx="52" cy="195" r="28" fill="#2E5E3E" fill-opacity="0.12"/>
      <circle cx="52" cy="195" r="12" fill="#2E5E3E" fill-opacity="0.25"/>
      <text x="92.0" y="181.0" font-family="Inter, Arial, sans-serif" font-size="11" font-weight="400" fill="#2E5E3E">Hola!</text>
      <text x="92.0" y="201.0" font-family="Inter, Arial, sans-serif" font-size="15" font-weight="700" fill="#1A2E1A">Usuario Demo</text>
      <text x="92.0" y="219.0" font-family="Inter, Arial, sans-serif" font-size="11" font-weight="400" fill="#2C4A4A">demo@selvabooking.com</text>
      <rect x="92" y="227" width="88" height="20" rx="10" fill="#4A9B5C" fill-opacity="0.18"/>
      <text x="136.0" y="241.0" font-family="Inter, Arial, sans-serif" font-size="10" font-weight="600" fill="#2E5E3E" text-anchor="middle" dominant-baseline="middle">Cliente</text>
      <text x="28.0" y="169.0" font-family="Inter, Arial, sans-serif" font-size="10" font-weight="700" fill="#2E5E3E">MENU PRINCIPAL</text>
      <rect x="20" y="177" width="264" height="52" rx="14" fill="#F3F1EA"/>
      <rect x="36" y="189" width="36" height="36" rx="10" fill="#2E5E3E" fill-opacity="0.1"/>
      <text x="84.0" y="203.0" font-family="Inter, Arial, sans-serif" font-size="14" font-weight="600" fill="#1A2E1A">Inicio</text>
      <text x="84.0" y="219.0" font-family="Inter, Arial, sans-serif" font-size="11" font-weight="400" fill="#2C4A4A">Acceso rapido</text>
      <rect x="36" y="245" width="36" height="36" rx="10" fill="#2E5E3E" fill-opacity="0.1"/>
      <text x="84.0" y="259.0" font-family="Inter, Arial, sans-serif" font-size="14" font-weight="500" fill="#2E5E3E">Buscar</text>
      <text x="84.0" y="275.0" font-family="Inter, Arial, sans-serif" font-size="11" font-weight="400" fill="#2C4A4A">Acceso rapido</text>
      <rect x="36" y="301" width="36" height="36" rx="10" fill="#2E5E3E" fill-opacity="0.1"/>
      <text x="84.0" y="315.0" font-family="Inter, Arial, sans-serif" font-size="14" font-weight="500" fill="#2E5E3E">Mis Reservas</text>
      <text x="84.0" y="331.0" font-family="Inter, Arial, sans-serif" font-size="11" font-weight="400" fill="#2C4A4A">Acceso rapido</text>
      <text x="28.0" y="357.0" font-family="Inter, Arial, sans-serif" font-size="10" font-weight="700" fill="#2E5E3E">TU CUENTA</text>
      <rect x="36" y="377" width="36" height="36" rx="10" fill="#2E5E3E" fill-opacity="0.1"/>
      <text x="84.0" y="391.0" font-family="Inter, Arial, sans-serif" font-size="14" font-weight="500" fill="#2E5E3E">Mi Cuenta</text>
      <text x="84.0" y="407.0" font-family="Inter, Arial, sans-serif" font-size="11" font-weight="400" fill="#2C4A4A">Acceso rapido</text>
      <rect x="36" y="433" width="36" height="36" rx="10" fill="#2E5E3E" fill-opacity="0.1"/>
      <text x="84.0" y="447.0" font-family="Inter, Arial, sans-serif" font-size="14" font-weight="500" fill="#2E5E3E">Soporte y Ayuda</text>
      <text x="84.0" y="463.0" font-family="Inter, Arial, sans-serif" font-size="11" font-weight="400" fill="#2C4A4A">Acceso rapido</text>
      <text x="28.0" y="489.0" font-family="Inter, Arial, sans-serif" font-size="10" font-weight="700" fill="#2E5E3E">SESION</text>
      <rect x="36" y="509" width="36" height="36" rx="10" fill="#2E5E3E" fill-opacity="0.1"/>
      <text x="84.0" y="523.0" font-family="Inter, Arial, sans-serif" font-size="14" font-weight="500" fill="#2E5E3E">Cerrar Sesion</text>
      <text x="84.0" y="539.0" font-family="Inter, Arial, sans-serif" font-size="11" font-weight="400" fill="#2C4A4A">Acceso rapido</text>
      <rect x="128" y="816" width="48" height="4" rx="2" fill="#2E5E3E" fill-opacity="0.3"/>
    </g>
  </g>
</svg>