<?xml version="1.0" encoding="UTF-8"?>
<svg xmlns="http://www.w3.org/2000/svg" xmlns:xlink="http://www.w3.org/1999/xlink"
     width="390px" height="844px" viewBox="0 0 390 844"
     preserveAspectRatio="xMidYMid meet" fill="none">
  <title>Dashboard Admin</title>
  <defs>
    <linearGradient id="gradDrawer" x1="0" y1="0" x2="0" y2="1">
      <stop offset="0%" stop-color="#2E5E3E"/>
      <stop offset="100%" stop-color="#1E3D2A"/>
    </linearGradient>
    <linearGradient id="gradHero" x1="0" y1="0" x2="0" y2="1">
      <stop offset="0%" stop-color="#1E3D2A" stop-opacity="0"/>
      <stop offset="100%" stop-color="#000000" stop-opacity="0.55"/>
    </linearGradient>
    <clipPath id="clipFrame">
      <rect x="0" y="0" width="390" height="844"/>
    </clipPath>
    <clipPath id="clipLogo">
      <rect x="45" y="318" width="300" height="128" rx="8"/>
    </clipPath>
  </defs>
  <g id="screen" clip-path="url(#clipFrame)">
    <rect id="background" x="0" y="0" width="390" height="844" fill="#FAF9F6"/>
    <g id="status-bar">
      <text x="24.0" y="20.0" font-family="Inter, Arial, sans-serif" font-size="12" font-weight="600" fill="#2C4A4A">9:41</text>
      <text x="330.0" y="20.0" font-family="Inter, Arial, sans-serif" font-size="11" font-weight="400" fill="#2C4A4A" text-anchor="end">100%</text>
    </g>
    <g id="top-bar">
      <rect x="0" y="36" width="390" height="56" fill="#FAF9F6"/>
      <line x1="0" y1="92" x2="390" y2="92" stroke="#F3F1EA" stroke-width="1"/>
            <g id="menu-icon" transform="translate(16,48)">
        <rect x="0" y="2" width="18" height="2.5" rx="1.2" fill="#2E5E3E"/>
        <rect x="0" y="8" width="18" height="2.5" rx="1.2" fill="#2E5E3E"/>
        <rect x="0" y="14" width="18" height="2.5" rx="1.2" fill="#2E5E3E"/>
      </g>
      <text x="48.0" y="68.0" font-family="Georgia, Times New Roman, serif" font-size="18" font-weight="700" fill="#2E5E3E">Dashboard</text>
    </g>
<rect x="16" y="108" width="358" height="72" rx="14" fill="#F3F1EA"/>
<text x="32.0" y="140.0" font-family="Inter, Arial, sans-serif" font-size="14" font-weight="700" fill="#2E5E3E">Solicitudes de admin pendientes</text>
<text x="32.0" y="162.0" font-family="Inter, Arial, sans-serif" font-size="22" font-weight="700" fill="#E8954A">2</text>
<text x="20.0" y="200.0" font-family="Georgia, Times New Roman, serif" font-size="20" font-weight="700" fill="#2E5E3E">Estadisticas generales</text>
<rect x="16" y="220" width="169" height="84" rx="12" fill="#F3F1EA"/>
<text x="32.0" y="260.0" font-family="Inter, Arial, sans-serif" font-size="24" font-weight="700" fill="#2E5E3E">12</text>
<text x="32.0" y="284.0" font-family="Inter, Arial, sans-serif" font-size="12" font-weight="400" fill="#2C4A4A">Hoteles</text>
<rect x="205" y="220" width="169" height="84" rx="12" fill="#F3F1EA"/>
<text x="221.0" y="260.0" font-family="Inter, Arial, sans-serif" font-size="24" font-weight="700" fill="#2E5E3E">34</text>
<text x="221.0" y="284.0" font-family="Inter, Arial, sans-serif" font-size="12" font-weight="400" fill="#2C4A4A">Habitaciones</text>
<rect x="16" y="320" width="169" height="84" rx="12" fill="#F3F1EA"/>
<text x="32.0" y="360.0" font-family="Inter, Arial, sans-serif" font-size="24" font-weight="700" fill="#2E5E3E">28</text>
<text x="32.0" y="384.0" font-family="Inter, Arial, sans-serif" font-size="12" font-weight="400" fill="#2C4A4A">Reservas</text>
<rect x="205" y="320" width="169" height="84" rx="12" fill="#F3F1EA"/>
<text x="221.0" y="360.0" font-family="Inter, Arial, sans-serif" font-size="24" font-weight="700" fill="#2E5E3E">15</text>
<text x="221.0" y="384.0" font-family="Inter, Arial, sans-serif" font-size="12" font-weight="400" fill="#2C4A4A">Activas</text>
<rect x="16" y="420" width="169" height="84" rx="12" fill="#F3F1EA"/>
<text x="32.0" y="460.0" font-family="Inter, Arial, sans-serif" font-size="24" font-weight="700" fill="#2E5E3E">56</text>
<text x="32.0" y="484.0" font-family="Inter, Arial, sans-serif" font-size="12" font-weight="400" fill="#2C4A4A">Usuarios</text>
<rect x="205" y="420" width="169" height="84" rx="12" fill="#F3F1EA"/>
<text x="221.0" y="460.0" font-family="Inter, Arial, sans-serif" font-size="24" font-weight="700" fill="#2E5E3E">2</text>
<text x="221.0" y="484.0" font-family="Inter, Arial, sans-serif" font-size="12" font-weight="400" fill="#2C4A4A">Solicitudes</text>
  </g>
</svg>