<?xml version="1.0" encoding="UTF-8"?>
<svg xmlns="http://www.w3.org/2000/svg" xmlns:xlink="http://www.w3.org/1999/xlink"
     width="390px" height="844px" viewBox="0 0 390 844"
     preserveAspectRatio="xMidYMid meet" fill="none">
  <title>Solicitudes Admin</title>
  <defs>
    <linearGradient id="gradDrawer" x1="0" y1="0" x2="0" y2="1">
      <stop offset="0%" stop-color="#2E5E3E"/>
      <stop offset="100%" stop-color="#1E3D2A"/>
    </linearGradient>
    <linearGradient id="gradHero" x1="0" y1="0" x2="0" y2="1">
      <stop offset="0%" stop-color="#1E3D2A" stop-opacity="0"/>
      <stop offset="100%" stop-color="#000000" stop-opacity="0.55"/>
    </linearGradient>
    <clipPath id="clipFrame">
      <rect x="0" y="0" width="390" height="844"/>
    </clipPath>
    <clipPath id="clipLogo">
      <rect x="45" y="318" width="300" height="128" rx="8"/>
    </clipPath>
  </defs>
  <g id="screen" clip-path="url(#clipFrame)">
    <rect id="background" x="0" y="0" width="390" height="844" fill="#FAF9F6"/>
    <g id="status-bar">
      <text x="24.0" y="20.0" font-family="Inter, Arial, sans-serif" font-size="12" font-weight="600" fill="#2C4A4A">9:41</text>
      <text x="330.0" y="20.0" font-family="Inter, Arial, sans-serif" font-size="11" font-weight="400" fill="#2C4A4A" text-anchor="end">100%</text>
    </g>
    <g id="top-bar">
      <rect x="0" y="36" width="390" height="56" fill="#FAF9F6"/>
      <line x1="0" y1="92" x2="390" y2="92" stroke="#F3F1EA" stroke-width="1"/>
            <g id="menu-icon" transform="translate(16,48)">
        <rect x="0" y="2" width="18" height="2.5" rx="1.2" fill="#2E5E3E"/>
        <rect x="0" y="8" width="18" height="2.5" rx="1.2" fill="#2E5E3E"/>
        <rect x="0" y="14" width="18" height="2.5" rx="1.2" fill="#2E5E3E"/>
      </g>
      <text x="48.0" y="68.0" font-family="Georgia, Times New Roman, serif" font-size="18" font-weight="700" fill="#2E5E3E">Solicitudes de admin</text>
    </g>
<text x="20.0" y="116.0" font-family="Inter, Arial, sans-serif" font-size="13" font-weight="400" fill="#2C4A4A">2 solicitudes pendientes</text>
<rect x="16" y="132" width="358" height="130" rx="14" fill="#F3F1EA"/>
<text x="32.0" y="168.0" font-family="Inter, Arial, sans-serif" font-size="16" font-weight="700" fill="#1A2E1A">Maria Lopez</text>
<text x="32.0" y="190.0" font-family="Inter, Arial, sans-serif" font-size="12" font-weight="400" fill="#2C4A4A">maria@email.com</text>
<text x="32.0" y="212.0" font-family="Inter, Arial, sans-serif" font-size="12" font-weight="400" fill="#E8954A">Solicita acceso como administrador</text>
    <g id="btn-outline">
      <rect x="32" y="236" width="140" height="44" rx="12" fill="#FAF9F6" stroke="#2E5E3E" stroke-width="1.5"/>
      <text x="102.0" y="258.0" font-family="Inter, Arial, sans-serif" font-size="14" font-weight="600" fill="#2E5E3E" text-anchor="middle" dominant-baseline="middle">Rechazar</text>
    </g>
    <g id="btn-primary">
      <rect x="24" y="236" width="140" height="48" rx="12" fill="#2E5E3E"/>
      <text x="94.0" y="260.0" font-family="Inter, Arial, sans-serif" font-size="15" font-weight="600" fill="#FAF9F6" text-anchor="middle" dominant-baseline="middle">Aceptar</text>
    </g>
<rect x="16" y="290" width="358" height="130" rx="14" fill="#F3F1EA"/>
<text x="32.0" y="328.0" font-family="Inter, Arial, sans-serif" font-size="12" font-weight="400" fill="#2C4A4A">Carlos Ruiz</text>
  </g>
</svg>